<mxfile host="app.diagrams.net" modified="2023-12-31T18:48:27.330Z" agent="Mozilla/5.0 (Windows NT 10.0; Win64; x64; rv:109.0) Gecko/20100101 Firefox/119.0" etag="lTNwyqNhN3ORnXld3bq0" version="22.1.16" type="github">
  <diagram name="PÃ¡gina-1" id="zLWKFBo0BfelDE4MzV_v">
    <mxGraphModel dx="1890" dy="794" grid="1" gridSize="10" guides="1" tooltips="1" connect="1" arrows="1" fold="1" page="1" pageScale="1" pageWidth="1654" pageHeight="1169" math="0" shadow="0">
      <root>
        <mxCell id="0" />
        <mxCell id="1" parent="0" />
        <mxCell id="tRrPQd9gGLpKsUqzO6ij-82" value="" style="rounded=0;whiteSpace=wrap;html=1;fillColor=none;dashed=1;" vertex="1" parent="1">
          <mxGeometry x="510" y="1130" width="780" height="280" as="geometry" />
        </mxCell>
        <mxCell id="tRrPQd9gGLpKsUqzO6ij-64" value="" style="rounded=0;whiteSpace=wrap;html=1;fillColor=none;dashed=1;" vertex="1" parent="1">
          <mxGeometry x="510" y="820" width="780" height="280" as="geometry" />
        </mxCell>
        <mxCell id="tRrPQd9gGLpKsUqzO6ij-52" value="" style="rounded=0;whiteSpace=wrap;html=1;fillColor=none;dashed=1;" vertex="1" parent="1">
          <mxGeometry x="510" y="460" width="780" height="335" as="geometry" />
        </mxCell>
        <mxCell id="tRrPQd9gGLpKsUqzO6ij-51" value="" style="rounded=0;whiteSpace=wrap;html=1;fillColor=none;dashed=1;" vertex="1" parent="1">
          <mxGeometry x="510" y="140" width="780" height="290" as="geometry" />
        </mxCell>
        <mxCell id="tRrPQd9gGLpKsUqzO6ij-5" style="edgeStyle=orthogonalEdgeStyle;rounded=0;orthogonalLoop=1;jettySize=auto;html=1;entryX=0;entryY=0.5;entryDx=0;entryDy=0;" edge="1" parent="1" source="tRrPQd9gGLpKsUqzO6ij-1" target="tRrPQd9gGLpKsUqzO6ij-2">
          <mxGeometry relative="1" as="geometry" />
        </mxCell>
        <mxCell id="tRrPQd9gGLpKsUqzO6ij-6" style="edgeStyle=orthogonalEdgeStyle;rounded=0;orthogonalLoop=1;jettySize=auto;html=1;entryX=0;entryY=0.5;entryDx=0;entryDy=0;" edge="1" parent="1" source="tRrPQd9gGLpKsUqzO6ij-1" target="tRrPQd9gGLpKsUqzO6ij-4">
          <mxGeometry relative="1" as="geometry" />
        </mxCell>
        <mxCell id="tRrPQd9gGLpKsUqzO6ij-1" value="&lt;div&gt;AppAtom&lt;/div&gt;" style="rounded=1;whiteSpace=wrap;html=1;" vertex="1" parent="1">
          <mxGeometry x="230" y="200" width="120" height="60" as="geometry" />
        </mxCell>
        <mxCell id="tRrPQd9gGLpKsUqzO6ij-2" value="MyAtomInFolderAtom" style="rounded=1;whiteSpace=wrap;html=1;" vertex="1" parent="1">
          <mxGeometry x="340" y="280" width="150" height="60" as="geometry" />
        </mxCell>
        <mxCell id="tRrPQd9gGLpKsUqzO6ij-7" style="edgeStyle=orthogonalEdgeStyle;rounded=0;orthogonalLoop=1;jettySize=auto;html=1;entryX=0;entryY=0.5;entryDx=0;entryDy=0;" edge="1" parent="1" source="tRrPQd9gGLpKsUqzO6ij-3" target="tRrPQd9gGLpKsUqzO6ij-1">
          <mxGeometry relative="1" as="geometry" />
        </mxCell>
        <mxCell id="tRrPQd9gGLpKsUqzO6ij-3" value="IndexAtom" style="rounded=1;whiteSpace=wrap;html=1;" vertex="1" parent="1">
          <mxGeometry x="110" y="110" width="120" height="60" as="geometry" />
        </mxCell>
        <mxCell id="tRrPQd9gGLpKsUqzO6ij-4" value="MyFirstAtom" style="rounded=1;whiteSpace=wrap;html=1;" vertex="1" parent="1">
          <mxGeometry x="340" y="370" width="120" height="60" as="geometry" />
        </mxCell>
        <mxCell id="tRrPQd9gGLpKsUqzO6ij-8" value="" style="endArrow=block;dashed=1;html=1;dashPattern=1 3;strokeWidth=2;rounded=0;startArrow=none;startFill=0;endFill=1;" edge="1" parent="1">
          <mxGeometry width="50" height="50" relative="1" as="geometry">
            <mxPoint x="510" y="70" as="sourcePoint" />
            <mxPoint x="510" y="1755" as="targetPoint" />
          </mxGeometry>
        </mxCell>
        <mxCell id="tRrPQd9gGLpKsUqzO6ij-9" value="&lt;div&gt;AppAtom&lt;/div&gt;" style="rounded=1;whiteSpace=wrap;html=1;" vertex="1" parent="1">
          <mxGeometry x="520" y="180" width="150" height="60" as="geometry" />
        </mxCell>
        <mxCell id="tRrPQd9gGLpKsUqzO6ij-10" value="MyAtomInFolderAtom" style="rounded=1;whiteSpace=wrap;html=1;" vertex="1" parent="1">
          <mxGeometry x="520" y="485" width="150" height="60" as="geometry" />
        </mxCell>
        <mxCell id="tRrPQd9gGLpKsUqzO6ij-11" value="IndexAtom" style="rounded=1;whiteSpace=wrap;html=1;" vertex="1" parent="1">
          <mxGeometry x="520" y="870" width="150" height="60" as="geometry" />
        </mxCell>
        <mxCell id="tRrPQd9gGLpKsUqzO6ij-12" value="atomicreact.defines" style="swimlane;fontStyle=0;childLayout=stackLayout;horizontal=1;startSize=30;horizontalStack=0;resizeParent=1;resizeParentMax=0;resizeLast=0;collapsible=1;marginBottom=0;whiteSpace=wrap;html=1;" vertex="1" parent="1">
          <mxGeometry x="1005" y="230" width="260" height="90" as="geometry" />
        </mxCell>
        <mxCell id="tRrPQd9gGLpKsUqzO6ij-13" value="atomInFolder/myAtomInFolderAtom: AppAtom" style="text;strokeColor=none;fillColor=none;align=left;verticalAlign=middle;spacingLeft=4;spacingRight=4;overflow=hidden;points=[[0,0.5],[1,0.5]];portConstraint=eastwest;rotatable=0;whiteSpace=wrap;html=1;" vertex="1" parent="tRrPQd9gGLpKsUqzO6ij-12">
          <mxGeometry y="30" width="260" height="30" as="geometry" />
        </mxCell>
        <mxCell id="tRrPQd9gGLpKsUqzO6ij-14" value="myAtoms/myFirstAtom: AppAtom" style="text;strokeColor=none;fillColor=none;align=left;verticalAlign=middle;spacingLeft=4;spacingRight=4;overflow=hidden;points=[[0,0.5],[1,0.5]];portConstraint=eastwest;rotatable=0;whiteSpace=wrap;html=1;" vertex="1" parent="tRrPQd9gGLpKsUqzO6ij-12">
          <mxGeometry y="60" width="260" height="30" as="geometry" />
        </mxCell>
        <mxCell id="tRrPQd9gGLpKsUqzO6ij-26" style="edgeStyle=orthogonalEdgeStyle;rounded=0;orthogonalLoop=1;jettySize=auto;html=1;entryX=0;entryY=0.5;entryDx=0;entryDy=0;" edge="1" parent="1" source="tRrPQd9gGLpKsUqzO6ij-19" target="tRrPQd9gGLpKsUqzO6ij-21">
          <mxGeometry relative="1" as="geometry" />
        </mxCell>
        <mxCell id="tRrPQd9gGLpKsUqzO6ij-19" value="ReDefine atoms importing this one" style="shape=step;perimeter=stepPerimeter;whiteSpace=wrap;html=1;fixedSize=1;" vertex="1" parent="1">
          <mxGeometry x="690" y="605" width="260" height="50" as="geometry" />
        </mxCell>
        <mxCell id="tRrPQd9gGLpKsUqzO6ij-21" value="&lt;div&gt;AppAtom&lt;/div&gt;" style="rounded=1;whiteSpace=wrap;html=1;" vertex="1" parent="1">
          <mxGeometry x="850" y="675" width="90" height="30" as="geometry" />
        </mxCell>
        <mxCell id="tRrPQd9gGLpKsUqzO6ij-27" value="atomicreact" style="rounded=1;whiteSpace=wrap;html=1;" vertex="1" parent="1">
          <mxGeometry x="520" y="70" width="150" height="60" as="geometry" />
        </mxCell>
        <mxCell id="tRrPQd9gGLpKsUqzO6ij-34" value="atomicreact.atoms" style="swimlane;fontStyle=0;childLayout=stackLayout;horizontal=1;startSize=30;horizontalStack=0;resizeParent=1;resizeParentMax=0;resizeLast=0;collapsible=1;marginBottom=0;whiteSpace=wrap;html=1;" vertex="1" parent="1">
          <mxGeometry x="1010" y="345" width="210" height="60" as="geometry" />
        </mxCell>
        <mxCell id="tRrPQd9gGLpKsUqzO6ij-37" value="atomicreact.atoms" style="swimlane;fontStyle=0;childLayout=stackLayout;horizontal=1;startSize=30;horizontalStack=0;resizeParent=1;resizeParentMax=0;resizeLast=0;collapsible=1;marginBottom=0;whiteSpace=wrap;html=1;" vertex="1" parent="1">
          <mxGeometry x="1010" y="715" width="210" height="60" as="geometry" />
        </mxCell>
        <mxCell id="tRrPQd9gGLpKsUqzO6ij-42" value="MyAtomInFolderAtom" style="text;strokeColor=none;fillColor=none;align=left;verticalAlign=middle;spacingLeft=4;spacingRight=4;overflow=hidden;points=[[0,0.5],[1,0.5]];portConstraint=eastwest;rotatable=0;whiteSpace=wrap;html=1;" vertex="1" parent="tRrPQd9gGLpKsUqzO6ij-37">
          <mxGeometry y="30" width="210" height="30" as="geometry" />
        </mxCell>
        <mxCell id="tRrPQd9gGLpKsUqzO6ij-76" style="edgeStyle=orthogonalEdgeStyle;rounded=0;orthogonalLoop=1;jettySize=auto;html=1;entryX=0;entryY=0.5;entryDx=0;entryDy=0;" edge="1" parent="1" source="tRrPQd9gGLpKsUqzO6ij-43" target="tRrPQd9gGLpKsUqzO6ij-73">
          <mxGeometry relative="1" as="geometry" />
        </mxCell>
        <mxCell id="tRrPQd9gGLpKsUqzO6ij-77" style="edgeStyle=orthogonalEdgeStyle;rounded=0;orthogonalLoop=1;jettySize=auto;html=1;entryX=0;entryY=0.5;entryDx=0;entryDy=0;" edge="1" parent="1" source="tRrPQd9gGLpKsUqzO6ij-43" target="tRrPQd9gGLpKsUqzO6ij-74">
          <mxGeometry relative="1" as="geometry" />
        </mxCell>
        <mxCell id="tRrPQd9gGLpKsUqzO6ij-43" value="Define dependecies" style="shape=step;perimeter=stepPerimeter;whiteSpace=wrap;html=1;fixedSize=1;" vertex="1" parent="1">
          <mxGeometry x="690" y="180" width="260" height="50" as="geometry" />
        </mxCell>
        <mxCell id="tRrPQd9gGLpKsUqzO6ij-45" value="ReDefine atoms importing this one" style="shape=step;perimeter=stepPerimeter;whiteSpace=wrap;html=1;fixedSize=1;" vertex="1" parent="1">
          <mxGeometry x="690" y="350" width="260" height="50" as="geometry" />
        </mxCell>
        <mxCell id="tRrPQd9gGLpKsUqzO6ij-47" value="atomicreact.atoms" style="swimlane;fontStyle=0;childLayout=stackLayout;horizontal=1;startSize=30;horizontalStack=0;resizeParent=1;resizeParentMax=0;resizeLast=0;collapsible=1;marginBottom=0;whiteSpace=wrap;html=1;" vertex="1" parent="1">
          <mxGeometry x="910" y="70" width="210" height="60" as="geometry" />
        </mxCell>
        <mxCell id="tRrPQd9gGLpKsUqzO6ij-48" value="atomicreact.defines" style="swimlane;fontStyle=0;childLayout=stackLayout;horizontal=1;startSize=30;horizontalStack=0;resizeParent=1;resizeParentMax=0;resizeLast=0;collapsible=1;marginBottom=0;whiteSpace=wrap;html=1;" vertex="1" parent="1">
          <mxGeometry x="690" y="70" width="210" height="60" as="geometry" />
        </mxCell>
        <mxCell id="tRrPQd9gGLpKsUqzO6ij-53" value="Define dependecies" style="shape=step;perimeter=stepPerimeter;whiteSpace=wrap;html=1;fixedSize=1;" vertex="1" parent="1">
          <mxGeometry x="690" y="490" width="260" height="50" as="geometry" />
        </mxCell>
        <mxCell id="tRrPQd9gGLpKsUqzO6ij-57" value="atomicreact.defines" style="swimlane;fontStyle=0;childLayout=stackLayout;horizontal=1;startSize=30;horizontalStack=0;resizeParent=1;resizeParentMax=0;resizeLast=0;collapsible=1;marginBottom=0;whiteSpace=wrap;html=1;" vertex="1" parent="1">
          <mxGeometry x="1010" y="470" width="260" height="90" as="geometry" />
        </mxCell>
        <mxCell id="tRrPQd9gGLpKsUqzO6ij-58" value="atomInFolder/myAtomInFolderAtom: AppAtom" style="text;strokeColor=none;fillColor=none;align=left;verticalAlign=middle;spacingLeft=4;spacingRight=4;overflow=hidden;points=[[0,0.5],[1,0.5]];portConstraint=eastwest;rotatable=0;whiteSpace=wrap;html=1;" vertex="1" parent="tRrPQd9gGLpKsUqzO6ij-57">
          <mxGeometry y="30" width="260" height="30" as="geometry" />
        </mxCell>
        <mxCell id="tRrPQd9gGLpKsUqzO6ij-59" value="myAtoms/myFirstAtom: AppAtom" style="text;strokeColor=none;fillColor=none;align=left;verticalAlign=middle;spacingLeft=4;spacingRight=4;overflow=hidden;points=[[0,0.5],[1,0.5]];portConstraint=eastwest;rotatable=0;whiteSpace=wrap;html=1;" vertex="1" parent="tRrPQd9gGLpKsUqzO6ij-57">
          <mxGeometry y="60" width="260" height="30" as="geometry" />
        </mxCell>
        <mxCell id="tRrPQd9gGLpKsUqzO6ij-60" value="atomicreact.defines" style="swimlane;fontStyle=0;childLayout=stackLayout;horizontal=1;startSize=30;horizontalStack=0;resizeParent=1;resizeParentMax=0;resizeLast=0;collapsible=1;marginBottom=0;whiteSpace=wrap;html=1;" vertex="1" parent="1">
          <mxGeometry x="1010" y="605" width="260" height="60" as="geometry" />
        </mxCell>
        <mxCell id="tRrPQd9gGLpKsUqzO6ij-62" value="myAtoms/myFirstAtom: AppAtom" style="text;strokeColor=none;fillColor=none;align=left;verticalAlign=middle;spacingLeft=4;spacingRight=4;overflow=hidden;points=[[0,0.5],[1,0.5]];portConstraint=eastwest;rotatable=0;whiteSpace=wrap;html=1;" vertex="1" parent="tRrPQd9gGLpKsUqzO6ij-60">
          <mxGeometry y="30" width="260" height="30" as="geometry" />
        </mxCell>
        <mxCell id="tRrPQd9gGLpKsUqzO6ij-79" style="edgeStyle=orthogonalEdgeStyle;rounded=0;orthogonalLoop=1;jettySize=auto;html=1;entryX=0;entryY=0.5;entryDx=0;entryDy=0;" edge="1" parent="1" source="tRrPQd9gGLpKsUqzO6ij-65" target="tRrPQd9gGLpKsUqzO6ij-78">
          <mxGeometry relative="1" as="geometry" />
        </mxCell>
        <mxCell id="tRrPQd9gGLpKsUqzO6ij-65" value="Define dependecies" style="shape=step;perimeter=stepPerimeter;whiteSpace=wrap;html=1;fixedSize=1;" vertex="1" parent="1">
          <mxGeometry x="690" y="875" width="260" height="50" as="geometry" />
        </mxCell>
        <mxCell id="tRrPQd9gGLpKsUqzO6ij-69" value="atomicreact.defines" style="swimlane;fontStyle=0;childLayout=stackLayout;horizontal=1;startSize=30;horizontalStack=0;resizeParent=1;resizeParentMax=0;resizeLast=0;collapsible=1;marginBottom=0;whiteSpace=wrap;html=1;" vertex="1" parent="1">
          <mxGeometry x="1000" y="875" width="250" height="90" as="geometry" />
        </mxCell>
        <mxCell id="tRrPQd9gGLpKsUqzO6ij-71" value="myAtoms/myFirstAtom: AppAtom" style="text;strokeColor=none;fillColor=none;align=left;verticalAlign=middle;spacingLeft=4;spacingRight=4;overflow=hidden;points=[[0,0.5],[1,0.5]];portConstraint=eastwest;rotatable=0;whiteSpace=wrap;html=1;" vertex="1" parent="tRrPQd9gGLpKsUqzO6ij-69">
          <mxGeometry y="30" width="250" height="30" as="geometry" />
        </mxCell>
        <mxCell id="tRrPQd9gGLpKsUqzO6ij-70" value="app: IndexAtom" style="text;strokeColor=none;fillColor=none;align=left;verticalAlign=middle;spacingLeft=4;spacingRight=4;overflow=hidden;points=[[0,0.5],[1,0.5]];portConstraint=eastwest;rotatable=0;whiteSpace=wrap;html=1;" vertex="1" parent="tRrPQd9gGLpKsUqzO6ij-69">
          <mxGeometry y="60" width="250" height="30" as="geometry" />
        </mxCell>
        <mxCell id="tRrPQd9gGLpKsUqzO6ij-72" value="ReDefine atoms importing this one" style="shape=step;perimeter=stepPerimeter;whiteSpace=wrap;html=1;fixedSize=1;" vertex="1" parent="1">
          <mxGeometry x="690" y="1020" width="260" height="50" as="geometry" />
        </mxCell>
        <mxCell id="tRrPQd9gGLpKsUqzO6ij-73" value="MyAtomInFolderAtom" style="rounded=1;whiteSpace=wrap;html=1;" vertex="1" parent="1">
          <mxGeometry x="844" y="250" width="136" height="30" as="geometry" />
        </mxCell>
        <mxCell id="tRrPQd9gGLpKsUqzO6ij-74" value="MyFirstAtom" style="rounded=1;whiteSpace=wrap;html=1;" vertex="1" parent="1">
          <mxGeometry x="844" y="290" width="136" height="30" as="geometry" />
        </mxCell>
        <mxCell id="tRrPQd9gGLpKsUqzO6ij-78" value="&lt;div&gt;AppAtom&lt;/div&gt;" style="rounded=1;whiteSpace=wrap;html=1;" vertex="1" parent="1">
          <mxGeometry x="850" y="945" width="90" height="30" as="geometry" />
        </mxCell>
        <mxCell id="tRrPQd9gGLpKsUqzO6ij-80" value="atomicreact.atoms" style="swimlane;fontStyle=0;childLayout=stackLayout;horizontal=1;startSize=30;horizontalStack=0;resizeParent=1;resizeParentMax=0;resizeLast=0;collapsible=1;marginBottom=0;whiteSpace=wrap;html=1;" vertex="1" parent="1">
          <mxGeometry x="1000" y="1015" width="210" height="60" as="geometry" />
        </mxCell>
        <mxCell id="tRrPQd9gGLpKsUqzO6ij-81" value="MyAtomInFolderAtom" style="text;strokeColor=none;fillColor=none;align=left;verticalAlign=middle;spacingLeft=4;spacingRight=4;overflow=hidden;points=[[0,0.5],[1,0.5]];portConstraint=eastwest;rotatable=0;whiteSpace=wrap;html=1;" vertex="1" parent="tRrPQd9gGLpKsUqzO6ij-80">
          <mxGeometry y="30" width="210" height="30" as="geometry" />
        </mxCell>
        <mxCell id="tRrPQd9gGLpKsUqzO6ij-84" value="MyFirstAtom" style="rounded=1;whiteSpace=wrap;html=1;" vertex="1" parent="1">
          <mxGeometry x="520" y="1160" width="120" height="60" as="geometry" />
        </mxCell>
      </root>
    </mxGraphModel>
  </diagram>
</mxfile>
